<svg width="29" height="28" viewBox="0 0 29 28" fill="none" xmlns="http://www.w3.org/2000/svg">
<path d="M15.95 15.4H13.05V7H15.95M15.95 21H13.05V18.2H15.95M14.5 0C12.5958 0 10.7103 0.362121 8.95109 1.06569C7.19187 1.76925 5.5934 2.80048 4.24695 4.1005C1.52767 6.72601 0 10.287 0 14C0 17.713 1.52767 21.274 4.24695 23.8995C5.5934 25.1995 7.19187 26.2307 8.95109 26.9343C10.7103 27.6379 12.5958 28 14.5 28C18.3456 28 22.0338 26.525 24.753 23.8995C27.4723 21.274 29 17.713 29 14C29 12.1615 28.6249 10.341 27.8963 8.64243C27.1676 6.94387 26.0995 5.40053 24.753 4.1005C23.4066 2.80048 21.8081 1.76925 20.0489 1.06569C18.2897 0.362121 16.4042 0 14.5 0Z" fill="#3850FB"/>
</svg>
