<svg width="35" height="31" viewBox="0 0 35 31" fill="none" xmlns="http://www.w3.org/2000/svg">
<path d="M17.5 0C7.87499 0 0 6.98745 0 15.5934C0 23.3745 6.40499 29.8328 14.77 31V20.1064H10.325V15.5934H14.77V12.1541C14.77 8.24799 17.3775 6.1004 21.385 6.1004C23.2925 6.1004 25.2875 6.39609 25.2875 6.39609V10.24H23.0825C20.9125 10.24 20.23 11.4383 20.23 12.6677V15.5934H25.095L24.3075 20.1064H20.23V31C24.3537 30.4208 28.1088 28.5498 30.8173 25.7245C33.5258 22.8992 35.0093 19.306 35 15.5934C35 6.98745 27.125 0 17.5 0Z" fill="#3850FB"/>
</svg>
