<svg width="35" height="31" viewBox="0 0 35 31" fill="none" xmlns="http://www.w3.org/2000/svg">
<path d="M10.15 0H24.85C30.45 0 35 4.03 35 8.99V22.01C35 24.3943 33.9306 26.6809 32.0271 28.3669C30.1236 30.0528 27.5419 31 24.85 31H10.15C4.55 31 0 26.97 0 22.01V8.99C0 6.6057 1.06937 4.31906 2.97287 2.63311C4.87636 0.947158 7.45805 0 10.15 0ZM9.8 3.1C8.12914 3.1 6.52671 3.68789 5.34523 4.73434C4.16375 5.7808 3.5 7.20009 3.5 8.68V22.32C3.5 25.4045 6.3175 27.9 9.8 27.9H25.2C26.8709 27.9 28.4733 27.3121 29.6548 26.2657C30.8363 25.2192 31.5 23.7999 31.5 22.32V8.68C31.5 5.5955 28.6825 3.1 25.2 3.1H9.8ZM26.6875 5.425C27.2677 5.425 27.8241 5.62913 28.2343 5.99248C28.6445 6.35583 28.875 6.84864 28.875 7.3625C28.875 7.87636 28.6445 8.36917 28.2343 8.73252C27.8241 9.09587 27.2677 9.3 26.6875 9.3C26.1073 9.3 25.5509 9.09587 25.1407 8.73252C24.7305 8.36917 24.5 7.87636 24.5 7.3625C24.5 6.84864 24.7305 6.35583 25.1407 5.99248C25.5509 5.62913 26.1073 5.425 26.6875 5.425ZM17.5 7.75C19.8206 7.75 22.0462 8.56651 23.6872 10.0199C25.3281 11.4733 26.25 13.4446 26.25 15.5C26.25 17.5554 25.3281 19.5267 23.6872 20.9801C22.0462 22.4335 19.8206 23.25 17.5 23.25C15.1794 23.25 12.9538 22.4335 11.3128 20.9801C9.67187 19.5267 8.75 17.5554 8.75 15.5C8.75 13.4446 9.67187 11.4733 11.3128 10.0199C12.9538 8.56651 15.1794 7.75 17.5 7.75ZM17.5 10.85C16.1076 10.85 14.7723 11.3399 13.7877 12.212C12.8031 13.084 12.25 14.2667 12.25 15.5C12.25 16.7333 12.8031 17.916 13.7877 18.788C14.7723 19.6601 16.1076 20.15 17.5 20.15C18.8924 20.15 20.2277 19.6601 21.2123 18.788C22.1969 17.916 22.75 16.7333 22.75 15.5C22.75 14.2667 22.1969 13.084 21.2123 12.212C20.2277 11.3399 18.8924 10.85 17.5 10.85Z" fill="#3850FB"/>
</svg>
