<svg width="71" height="71" viewBox="0 0 71 71" fill="none" xmlns="http://www.w3.org/2000/svg">
<g clip-path="url(#clip0_108_179)">
<rect width="71" height="71" fill="white"/>
<path d="M57.648 7.44864H27.0074C26.6301 7.44864 26.2611 7.5963 25.9904 7.86701L10.2518 23.6174C9.98117 23.8882 9.83354 24.2491 9.83354 24.6347V49.5811H0V20.7955L20.7907 0H50.1929L57.6398 7.44864H57.648Z" fill="url(#paint0_linear_108_179)"/>
<path d="M70.9996 21.5254V50.1551L50.2007 70.9998H20.7903L13.5566 63.748H44.5827C44.96 63.748 45.3291 63.5922 45.5997 63.3215L61.3465 47.5464C61.6172 47.2757 61.7648 46.9148 61.7648 46.5292V21.5254H71.0078H70.9996Z" fill="url(#paint1_linear_108_179)"/>
<path d="M58.8791 21.6406V45.9964L43.9771 60.9019H10.6955L2.24805 52.4442H36.1365C36.4235 52.4442 36.7024 52.3622 36.9402 52.1981L49.0045 44.0194C49.3982 43.7487 49.6361 43.3057 49.6361 42.8299V28.1705C49.6361 27.6783 49.3818 27.2189 48.9635 26.9564L40.4832 21.6406H58.8955H58.8791Z" fill="url(#paint2_linear_108_179)"/>
<path d="M68.9655 18.7692H35.4954C35.4215 18.7692 35.3477 18.7692 35.2739 18.7856C35.2493 18.7856 35.2247 18.7938 35.2001 18.802C35.1591 18.8102 35.1099 18.8184 35.0607 18.8348C35.0361 18.843 35.0115 18.8512 34.9787 18.8676C34.9377 18.884 34.9049 18.9004 34.8556 18.9168L34.7818 18.9579C34.7818 18.9579 34.749 18.9743 34.7326 18.9907L22.0368 26.9561C21.6185 27.2186 21.3643 27.678 21.3643 28.1702V42.8296C21.3643 43.3054 21.6021 43.7484 21.9958 44.0191L30.1972 49.5728H12.6953V25.217L27.5974 10.3115H60.5098L68.9573 18.7692H68.9655Z" fill="url(#paint3_linear_108_179)"/>
</g>
<defs>
<linearGradient id="paint0_linear_108_179" x1="0" y1="24.7905" x2="57.648" y2="24.7905" gradientUnits="userSpaceOnUse">
<stop stop-color="#3850FB"/>
<stop offset="1" stop-color="#2E3192"/>
</linearGradient>
<linearGradient id="paint1_linear_108_179" x1="13.5566" y1="46.2667" x2="70.9996" y2="46.2667" gradientUnits="userSpaceOnUse">
<stop stop-color="#3850FB"/>
<stop offset="1" stop-color="#2E3192"/>
</linearGradient>
<linearGradient id="paint2_linear_108_179" x1="2.23985" y1="41.2712" x2="58.8791" y2="41.2712" gradientUnits="userSpaceOnUse">
<stop stop-color="#3850FB"/>
<stop offset="1" stop-color="#2E3192"/>
</linearGradient>
<linearGradient id="paint3_linear_108_179" x1="52.0705" y1="4.79887" x2="19.7709" y2="54.2008" gradientUnits="userSpaceOnUse">
<stop stop-color="#3850FB"/>
<stop offset="1" stop-color="#2E3192"/>
</linearGradient>
<clipPath id="clip0_108_179">
<rect width="71" height="71" fill="white"/>
</clipPath>
</defs>
</svg>
