<svg width="35" height="31" viewBox="0 0 35 31" fill="none" xmlns="http://www.w3.org/2000/svg">
<path d="M31.1111 0C32.1425 0 33.1317 0.362896 33.861 1.00885C34.5903 1.65481 35 2.53092 35 3.44444V27.5556C35 28.4691 34.5903 29.3452 33.861 29.9911C33.1317 30.6371 32.1425 31 31.1111 31H3.88889C2.85749 31 1.86834 30.6371 1.13903 29.9911C0.409721 29.3452 0 28.4691 0 27.5556V3.44444C0 2.53092 0.409721 1.65481 1.13903 1.00885C1.86834 0.362896 2.85749 0 3.88889 0H31.1111ZM30.1389 26.6944V17.5667C30.1389 16.0776 29.471 14.6496 28.2823 13.5967C27.0935 12.5437 25.4812 11.9522 23.8 11.9522C22.1472 11.9522 20.2222 12.8478 19.2889 14.1911V12.2794H13.8639V26.6944H19.2889V18.2039C19.2889 16.8778 20.4944 15.7928 21.9917 15.7928C22.7136 15.7928 23.4061 16.0468 23.9166 16.499C24.4271 16.9511 24.7139 17.5644 24.7139 18.2039V26.6944H30.1389ZM7.54444 9.57556C8.41082 9.57556 9.24171 9.27072 9.85433 8.72812C10.4669 8.18551 10.8111 7.44958 10.8111 6.68222C10.8111 5.08056 9.35278 3.77167 7.54444 3.77167C6.67291 3.77167 5.83708 4.07831 5.22081 4.62415C4.60455 5.16998 4.25833 5.9103 4.25833 6.68222C4.25833 8.28389 5.73611 9.57556 7.54444 9.57556ZM10.2472 26.6944V12.2794H4.86111V26.6944H10.2472Z" fill="#3850FB"/>
</svg>
