<svg width="380" height="63" viewBox="0 0 380 63" fill="none" xmlns="http://www.w3.org/2000/svg">
<g clip-path="url(#clip0_659_338)">
<path d="M377.179 54.5935H377.856L377.049 53.1395C377.12 53.1219 377.191 53.0924 377.249 53.0571C377.391 52.9747 377.508 52.8569 377.585 52.7039C377.667 52.5508 377.709 52.3801 377.709 52.1741C377.709 51.968 377.667 51.7973 377.585 51.6443C377.503 51.4971 377.391 51.3794 377.249 51.297C377.108 51.2145 376.937 51.1733 376.743 51.1733H375.318V54.5935H375.878V53.1866H376.431L377.179 54.5935ZM375.878 51.7149H376.725C376.849 51.7149 376.943 51.7561 377.014 51.8444C377.085 51.9327 377.126 52.0446 377.126 52.18C377.126 52.3213 377.09 52.4331 377.014 52.5214C376.943 52.6038 376.843 52.6509 376.725 52.6509H375.878V51.7208V51.7149Z" fill="white"/>
<path d="M376.344 56.5833C374.33 56.5833 372.688 54.9409 372.688 52.9276C372.688 50.9144 374.33 49.272 376.344 49.272C378.357 49.272 380 50.9144 380 52.9276C380 54.9409 378.357 56.5833 376.344 56.5833ZM376.344 49.7547C374.589 49.7547 373.164 51.1793 373.164 52.9335C373.164 54.6878 374.589 56.1124 376.344 56.1124C378.098 56.1124 379.517 54.6878 379.517 52.9335C379.517 51.1793 378.092 49.7547 376.344 49.7547Z" fill="white"/>
<path d="M308.576 33.4543V50.1079H315.988V33.4543V22.0693H308.576V33.4543Z" fill="white"/>
<path d="M298.538 33.4543V38.2578C298.538 41.9606 296.548 44.6391 292.786 44.6391C290.237 44.6391 288.706 43.5088 288.218 41.1836C287.976 40.483 287.853 39.6353 287.853 38.6581V22.0811H280.647V40.5419C280.647 41.7546 280.576 48.7363 289.189 50.8143C292.345 51.5737 295.877 51.2911 298.886 49.943C301.341 48.8422 303.089 46.8584 304.137 45.3632C305.232 43.7973 305.874 41.9371 305.88 40.0239C305.88 40.0121 305.88 40.0003 305.88 39.9886V22.0811H298.544V33.4601L298.538 33.4543Z" fill="white"/>
<path d="M271.88 30.2167C269.089 28.9628 264.927 27.9385 260.652 26.9142C256.437 25.89 254.783 24.5183 254.783 22.1283C254.783 19.2791 257.12 17.6838 261.565 17.6838C266.351 17.6838 268.689 19.5617 269.089 23.4411H276.613C276.33 16.2062 270.973 11.02 261.4 11.02C251.827 11.02 247.553 15.8648 247.553 22.6464C247.553 27.4323 249.831 30.1696 253.876 31.9886C255.165 32.5655 256.537 33.0188 258.127 33.4544C259.846 33.9195 261.824 34.361 264.244 34.8967C268.971 35.921 270.113 37.4633 270.113 39.6826C270.113 43.0439 267.435 45.0396 262.76 45.0396C257.691 45.0396 254.441 42.6436 254.323 38.7702H246.688C246.858 47.2589 253.352 51.4208 262.701 51.4208C271.532 51.4208 277.802 47.718 277.802 39.4C277.802 36.7804 277.172 34.8849 276.148 33.4603C275.076 31.9651 273.563 30.9879 271.874 30.2285L271.88 30.2167Z" fill="white"/>
<path d="M312.538 11.8149H312.026C310.125 11.8149 308.576 13.3573 308.576 15.2646C308.576 17.1719 310.119 18.7142 312.026 18.7142H312.538C314.44 18.7142 315.988 17.1719 315.988 15.2646C315.988 13.3573 314.446 11.8149 312.538 11.8149Z" fill="white"/>
<path d="M326.644 14.4932H319.35V39.5648C319.35 45.6046 322.599 50.8497 330.806 50.8497C339.013 50.8497 342.146 45.5517 342.146 39.6237V31.6472H335.251V38.9408C335.251 42.414 333.886 44.4096 330.918 44.4096C327.951 44.4096 326.644 42.361 326.644 38.8231V27.3145H342.146V22.0694H326.644V14.4932Z" fill="white"/>
<path d="M358.211 44.9747C354.567 44.9747 352.171 42.2374 351.941 38.0225H371.258C371.258 36.3742 371.158 34.8554 370.958 33.4485C369.816 25.3836 365.424 21.3276 358.094 21.3276C350.216 21.3276 345.395 26.0135 344.641 33.4485C344.57 34.1313 344.535 34.8436 344.535 35.5736C344.535 45.7164 349.21 50.8438 358.553 50.8438C364.535 50.8438 369.15 47.5943 370.863 41.843H363.228C362.715 43.7797 360.608 44.9747 358.211 44.9747ZM357.87 27.1967C360.778 27.1967 363.51 29.1923 363.628 33.3484H352.171C352.454 29.4749 354.909 27.1967 357.87 27.1967Z" fill="white"/>
<path d="M106.938 13.8516V40.4244C106.938 47.0528 102.829 51.4914 94.9929 51.4914C87.981 51.4914 83.7598 47.6592 83.7598 40.2065V36.4802H90.6656V39.8239C90.6656 43.4972 91.8726 45.3045 94.9929 45.3045C98.5017 45.3045 99.3201 43.715 99.3201 39.7179V21.4749C99.3201 17.2718 102.729 13.8574 106.938 13.8574V13.8516Z" fill="white"/>
<path d="M134.32 23.2764V40.4951C134.32 40.4951 134.32 40.5187 134.32 40.5305C134.32 42.373 133.702 44.1567 132.648 45.6637C131.642 47.1001 129.958 49.0074 127.603 50.067C124.712 51.3621 121.315 51.6388 118.277 50.9029C110 48.9073 110.064 42.1964 110.064 41.0249V23.2705H116.994V39.2118C116.994 40.1537 117.112 40.9661 117.341 41.6431C117.806 43.88 119.278 44.9691 121.733 44.9691C125.348 44.9691 127.267 42.3966 127.267 38.8351V23.2764H134.32Z" fill="white"/>
<path d="M137.24 63V23.2763H140.802C142.627 23.2763 144.117 24.7421 144.146 26.5611C145.848 23.8237 148.367 22.564 151.653 22.564C158.447 22.564 163.321 27.9327 163.321 37.0277C163.321 45.1926 159.212 50.944 152.253 50.944C148.909 50.944 146.283 49.5724 144.252 46.7232V55.983C144.252 59.8565 141.114 62.9942 137.24 62.9942V63ZM156.092 36.5391C156.092 31.7179 153.572 28.3742 150.01 28.3742C146.448 28.3742 143.981 31.553 143.981 36.0976C143.981 41.9608 146.007 44.863 149.951 44.863C154.113 44.863 156.086 42.0668 156.086 36.5332L156.092 36.5391Z" fill="white"/>
<path d="M166.064 16.7303C166.064 14.8995 167.548 13.416 169.379 13.416H169.874C171.705 13.416 173.188 14.8995 173.188 16.7303C173.188 18.561 171.705 20.0445 169.874 20.0445H169.379C167.548 20.0445 166.064 18.561 166.064 16.7303Z" fill="white"/>
<path d="M173.188 23.2764H166.064V50.2318H173.188V23.2764Z" fill="white"/>
<path d="M191.706 32.483H198.335V40.1534C198.335 45.8518 195.05 50.9438 187.431 50.9438C179.813 50.9438 176.416 45.9047 176.416 40.0945V15.9883H183.428V23.2761H198.335V28.3151H183.428V39.3822C183.428 42.7789 184.635 44.7509 187.537 44.7509C190.44 44.7509 191.7 42.8319 191.7 39.4941V32.483H191.706Z" fill="white"/>
<path d="M207.76 38.6171C207.978 42.6731 210.28 45.2986 213.789 45.2986C216.091 45.2986 218.116 44.1507 218.611 42.2846H225.952C224.31 47.8181 219.871 50.944 214.119 50.944C205.135 50.944 200.637 46.0109 200.637 36.2624C200.637 27.9327 205.405 22.564 213.677 22.564C221.949 22.564 226.335 27.9327 226.335 38.6171H207.76ZM218.994 34.1255C218.882 30.1284 216.256 28.2094 213.459 28.2094C210.663 28.2094 208.255 30.3992 207.978 34.1255H218.994Z" fill="white"/>
<path d="M228.736 50.3021V23.3408H235.424V26.5726C237.779 22.9581 240.523 23.3408 243.425 23.3408H244.356V29.7868C243.678 29.7868 243.037 29.7515 242.383 29.7515C237.997 29.7515 235.86 31.9413 235.86 36.274V50.3021H228.736Z" fill="white"/>
<path d="M50.6431 6.54607H23.7261C23.3905 6.54607 23.0726 6.67557 22.8371 6.91693L9.00767 20.7449C8.77217 20.9804 8.63676 21.2983 8.63676 21.6338V43.5443H0V18.2607L18.2626 0H44.0964L50.6431 6.54607Z" fill="white"/>
<path d="M62.3766 18.9024V44.0447L44.1022 62.3466H18.2685L11.916 55.9771H39.1686C39.5042 55.9771 39.8221 55.8417 40.0576 55.6063L53.887 41.7488C54.1225 41.5134 54.2579 41.1896 54.2579 40.8541V18.8965H62.3766V18.9024Z" fill="white"/>
<path d="M51.7268 19.0024V40.389L38.6392 53.4811H9.39076L1.9668 46.0521H31.7333C31.9865 46.0521 32.2337 45.9755 32.4398 45.8401L43.0371 38.6583C43.3844 38.4228 43.5905 38.0284 43.5905 37.6163V24.742C43.5905 24.3064 43.3668 23.9061 43.0017 23.6765L35.5542 19.0083H51.7268V19.0024Z" fill="white"/>
<path d="M60.5807 16.4828H31.1792C31.1144 16.4828 31.0497 16.4828 30.9849 16.5005C30.9613 16.5005 30.9378 16.5063 30.9201 16.5181C30.8848 16.524 30.8436 16.5358 30.8024 16.5475C30.7788 16.5534 30.7553 16.5652 30.7317 16.5711C30.6964 16.5829 30.667 16.5946 30.6258 16.6182L30.561 16.6535C30.561 16.6535 30.5316 16.6712 30.5139 16.6771L19.3632 23.6705C18.9923 23.9001 18.7745 24.3004 18.7745 24.736V37.6103C18.7745 38.0283 18.9806 38.4168 19.3279 38.6523L26.5282 43.5324H11.1562V22.1458L24.2439 9.05371H53.1567L60.5807 16.4828Z" fill="white"/>
</g>
<defs>
<clipPath id="clip0_659_338">
<rect width="380" height="63" fill="white"/>
</clipPath>
</defs>
</svg>
